<svg xmlns="http://www.w3.org/2000/svg" xmlns:xlink="http://www.w3.org/1999/xlink" width="500" zoomAndPan="magnify" viewBox="0 0 375 374.999991" height="500" preserveAspectRatio="xMidYMid meet" version="1.0"><defs><g/><clipPath id="66e9de77a8"><path d="M 90.402344 64.226562 L 284.734375 64.226562 L 284.734375 258.558594 L 90.402344 258.558594 Z M 90.402344 64.226562 " clip-rule="nonzero"/></clipPath><clipPath id="efde4b5745"><path d="M 187.570312 64.226562 C 133.90625 64.226562 90.402344 107.726562 90.402344 161.390625 C 90.402344 215.054688 133.90625 258.558594 187.570312 258.558594 C 241.230469 258.558594 284.734375 215.054688 284.734375 161.390625 C 284.734375 107.726562 241.230469 64.226562 187.570312 64.226562 " clip-rule="nonzero"/></clipPath><clipPath id="de3a492226"><path d="M 156 54 L 294 54 L 294 272 L 156 272 Z M 156 54 " clip-rule="nonzero"/></clipPath><clipPath id="538ab8b6c9"><path d="M 132.792969 265.796875 L 185.828125 31.730469 L 297.011719 56.921875 L 243.976562 290.988281 Z M 132.792969 265.796875 " clip-rule="nonzero"/></clipPath><clipPath id="2765fcbafc"><path d="M 132.792969 265.796875 L 185.828125 31.730469 L 297.011719 56.921875 L 243.976562 290.988281 Z M 132.792969 265.796875 " clip-rule="nonzero"/></clipPath><clipPath id="10636c4f5d"><path d="M 132.859375 265.5 L 185.828125 31.734375 L 297.402344 57.015625 L 244.433594 290.78125 Z M 132.859375 265.5 " clip-rule="nonzero"/></clipPath><clipPath id="68ec38ac81"><path d="M 132.859375 265.5 L 185.757812 32.046875 L 296.929688 57.234375 L 244.03125 290.691406 Z M 132.859375 265.5 " clip-rule="nonzero"/></clipPath></defs><rect x="-37.5" width="450" fill="#ffffff" y="-37.499999" height="449.999989" fill-opacity="1"/><rect x="-37.5" width="450" fill="#ffffff" y="-37.499999" height="449.999989" fill-opacity="1"/><g clip-path="url(#66e9de77a8)"><g clip-path="url(#efde4b5745)"><path fill="#ff3131" d="M 90.402344 64.226562 L 284.734375 64.226562 L 284.734375 258.558594 L 90.402344 258.558594 Z M 90.402344 64.226562 " fill-opacity="1" fill-rule="nonzero"/></g></g><g clip-path="url(#de3a492226)"><g clip-path="url(#538ab8b6c9)"><g clip-path="url(#2765fcbafc)"><g clip-path="url(#10636c4f5d)"><g clip-path="url(#68ec38ac81)"><path fill="#ffffff" d="M 213.253906 171.027344 C 213.503906 169.921875 214.597656 169.238281 215.691406 169.484375 C 216.796875 169.734375 217.484375 170.824219 217.234375 171.929688 C 216.988281 173.019531 215.898438 173.703125 214.792969 173.453125 C 213.695312 173.207031 213.007812 172.117188 213.253906 171.027344 Z M 220.691406 158.296875 C 220.925781 157.265625 221.949219 156.625 222.984375 156.859375 C 224.015625 157.089844 224.664062 158.113281 224.429688 159.144531 C 224.195312 160.175781 223.171875 160.816406 222.140625 160.585938 C 221.105469 160.351562 220.457031 159.328125 220.691406 158.296875 Z M 227.910156 145.164062 C 228.140625 144.128906 229.175781 143.488281 230.210938 143.722656 C 231.242188 143.957031 231.890625 144.980469 231.65625 146.011719 C 231.421875 147.039062 230.394531 147.695312 229.363281 147.460938 C 228.328125 147.226562 227.675781 146.191406 227.910156 145.164062 Z M 234.070312 133.691406 C 234.28125 132.75 235.230469 132.152344 236.183594 132.371094 C 237.136719 132.585938 237.734375 133.53125 237.519531 134.472656 C 237.304688 135.421875 236.359375 136.015625 235.40625 135.800781 C 234.453125 135.585938 233.855469 134.640625 234.070312 133.691406 Z M 240.320312 121.824219 C 240.515625 120.964844 241.375 120.425781 242.234375 120.621094 C 243.097656 120.816406 243.640625 121.671875 243.445312 122.535156 C 243.25 123.394531 242.390625 123.933594 241.53125 123.738281 C 240.667969 123.542969 240.125 122.683594 240.320312 121.824219 Z M 246.601562 112.027344 C 246.765625 111.300781 247.492188 110.84375 248.230469 111.011719 C 248.957031 111.175781 249.414062 111.902344 249.25 112.628906 C 249.085938 113.363281 248.359375 113.8125 247.632812 113.648438 C 246.894531 113.480469 246.433594 112.761719 246.601562 112.027344 Z M 253.5 100.503906 C 253.636719 99.898438 254.246094 99.507812 254.867188 99.648438 C 255.476562 99.785156 255.867188 100.402344 255.726562 101.011719 C 255.589844 101.628906 254.972656 102.007812 254.363281 101.871094 C 253.742188 101.730469 253.359375 101.125 253.5 100.503906 Z M 232.824219 155.808594 C 233.058594 154.777344 234.085938 154.136719 235.117188 154.371094 C 236.152344 154.605469 236.796875 155.625 236.566406 156.65625 C 236.332031 157.6875 235.304688 158.339844 234.269531 158.105469 C 233.238281 157.871094 232.59375 156.839844 232.824219 155.808594 Z M 238.777344 141.585938 C 239.011719 140.558594 240.046875 139.90625 241.082031 140.140625 C 242.113281 140.375 242.757812 141.40625 242.527344 142.433594 C 242.292969 143.464844 241.269531 144.109375 240.234375 143.875 C 239.203125 143.640625 238.546875 142.617188 238.777344 141.585938 Z M 244.394531 128.898438 C 244.609375 127.949219 245.546875 127.351562 246.5 127.566406 C 247.453125 127.78125 248.050781 128.726562 247.835938 129.679688 C 247.617188 130.628906 246.671875 131.222656 245.71875 131.007812 C 244.765625 130.792969 244.179688 129.847656 244.394531 128.898438 Z M 248.75 118.667969 C 248.945312 117.816406 249.804688 117.277344 250.667969 117.472656 C 251.527344 117.667969 252.0625 118.519531 251.871094 119.375 C 251.675781 120.234375 250.824219 120.777344 249.960938 120.582031 C 249.101562 120.386719 248.558594 119.527344 248.75 118.667969 Z M 204.78125 184.535156 C 205.039062 183.394531 206.175781 182.675781 207.324219 182.9375 C 208.476562 183.195312 209.199219 184.339844 208.941406 185.476562 C 208.679688 186.625 207.535156 187.34375 206.386719 187.085938 C 205.234375 186.824219 204.519531 185.683594 204.78125 184.535156 Z M 282.878906 106.277344 C 280.039062 105.636719 277.824219 117.585938 277.566406 118.722656 L 255.566406 215.824219 C 255.160156 217.617188 251.441406 232.929688 254.046875 233.519531 C 256.652344 234.109375 259.886719 218.761719 260.289062 216.980469 L 282.277344 119.941406 C 282.535156 118.804688 285.738281 106.925781 282.878906 106.277344 Z M 189.679688 162.96875 C 209.492188 132.351562 230.339844 104.875 250.859375 78.0625 C 252.28125 76.191406 253.035156 77 251.863281 78.75 C 232.390625 107.914062 212.566406 136.832031 193.492188 166.253906 C 188.3125 174.230469 184.503906 170.984375 189.679688 162.96875 Z M 224.8125 82.929688 C 222.785156 82.773438 219.300781 82.433594 219.28125 81.890625 C 219.253906 81.140625 220.273438 78.199219 221.835938 77.25 C 223.25 76.394531 231.164062 75.765625 232.738281 75.652344 C 233.265625 75.167969 233.796875 74.6875 234.332031 74.214844 C 237.597656 71.261719 240.832031 70.027344 236.117188 74.542969 C 214.980469 94.785156 194.867188 117.527344 175.628906 142.199219 C 167.132812 153.09375 163.640625 155.136719 172.332031 167.367188 C 189.066406 142.683594 218.234375 103.066406 228.714844 91.820312 C 237.039062 82.898438 241.296875 78.902344 243.25 76.960938 C 249.105469 71.117188 249.699219 74.164062 245.21875 79.394531 C 224.414062 103.648438 174.339844 169.5625 167.21875 196.109375 C 166.035156 200.558594 167.289062 203.253906 168.644531 204.777344 C 171.371094 197.210938 175.824219 187.488281 178.914062 183.601562 C 180.726562 181.316406 182.238281 182.113281 180.785156 185.050781 C 179.429688 187.824219 176.359375 193.789062 174.128906 202.046875 C 171.40625 212.148438 170.667969 220.363281 170.667969 220.363281 L 166.46875 216.273438 L 166.460938 216.253906 C 161.441406 212.265625 158.445312 207.535156 157.863281 202.925781 C 157.371094 199.097656 157.441406 192.996094 160.636719 186.0625 C 161.289062 184.636719 162.582031 182.398438 164.363281 179.53125 C 161.570312 176.109375 158.894531 172.527344 156.808594 168.183594 C 153.035156 159.699219 164.503906 146.902344 169.972656 140.351562 C 174.539062 134.878906 179.203125 129.511719 183.980469 124.214844 C 182.21875 124.03125 179.109375 123.621094 179.085938 122.945312 C 179.050781 122.007812 180.316406 118.335938 182.273438 117.160156 C 183.761719 116.261719 189.585938 115.539062 192.238281 115.242188 C 195.660156 111.613281 199.121094 108.015625 202.640625 104.449219 C 200.367188 104.292969 195.46875 103.871094 195.4375 103.175781 C 195.40625 102.273438 196.617188 98.753906 198.5 97.625 C 200.152344 96.625 209.273438 95.882812 211.398438 95.714844 C 215.804688 91.410156 220.285156 87.148438 224.8125 82.929688 Z M 184.652344 134.4375 C 192.363281 124.785156 225.003906 88.652344 230.601562 83.46875 C 232.085938 82.089844 233.003906 83.15625 231.816406 84.488281 C 216.789062 101.269531 202.144531 118.628906 187.894531 136.632812 C 184.824219 140.515625 181.648438 138.183594 184.652344 134.4375 Z M 286.953125 74.882812 L 285.183594 82.6875 C 282.824219 93.105469 288.480469 94.519531 290.867188 84 L 292.625 76.242188 C 294.84375 66.5625 289.132812 65.335938 286.953125 74.882812 Z M 246.117188 218.175781 C 241.507812 221.210938 172.753906 266.648438 167.101562 269.460938 C 161.253906 272.378906 157.523438 271.464844 156.449219 270.410156 C 155.808594 269.777344 161.480469 251.828125 170.429688 231.746094 C 195.304688 175.90625 234.019531 118.199219 267.492188 67.390625 C 273.304688 69.59375 275.835938 71.371094 278.261719 76.304688 C 280.160156 68.171875 283.660156 54.230469 285.503906 54.648438 C 287.945312 55.203125 282.160156 79.730469 281.507812 82.605469 L 246.164062 238.59375 C 245.75 240.429688 241.839844 259.816406 239.152344 259.207031 C 236.492188 258.601562 241.246094 239.664062 241.664062 237.828125 L 246.117188 218.175781 " fill-opacity="1" fill-rule="evenodd"/></g></g></g></g></g><g fill="#ff3131" fill-opacity="1"><g transform="translate(121.992184, 293.885986)"><g><path d="M 12.78125 0 L 6.5 0 L 6.5 -11.28125 L 0.625 -11.28125 L 0.625 -14.984375 L 18.65625 -14.984375 L 18.65625 -11.28125 L 12.78125 -11.28125 Z M 12.78125 0 "/></g></g></g><g fill="#ff3131" fill-opacity="1"><g transform="translate(141.269469, 293.885986)"><g><path d="M 7.953125 0 L 1.671875 0 L 1.671875 -14.984375 L 7.953125 -14.984375 Z M 7.953125 0 "/></g></g></g><g fill="#ff3131" fill-opacity="1"><g transform="translate(150.897669, 293.885986)"><g><path d="M 12.78125 0 L 6.5 0 L 6.5 -11.28125 L 0.625 -11.28125 L 0.625 -14.984375 L 18.65625 -14.984375 L 18.65625 -11.28125 L 12.78125 -11.28125 Z M 12.78125 0 "/></g></g></g><g fill="#ff3131" fill-opacity="1"><g transform="translate(170.174955, 293.885986)"><g><path d="M 25.171875 0 L 18.796875 0 L 17.390625 -2.453125 L 7.9375 -2.453125 L 6.53125 0 L 0.15625 0 L 9.75 -14.984375 L 15.578125 -14.984375 Z M 15.265625 -6.15625 L 12.671875 -10.703125 L 10.0625 -6.15625 Z M 15.265625 -6.15625 "/></g></g></g><g fill="#ff3131" fill-opacity="1"><g transform="translate(195.498588, 293.885986)"><g><path d="M 23.90625 0 L 16.421875 0 L 7.953125 -10.140625 L 7.953125 0 L 1.671875 0 L 1.671875 -14.984375 L 9.15625 -14.984375 L 17.625 -4.90625 L 17.625 -14.984375 L 23.90625 -14.984375 Z M 23.90625 0 "/></g></g></g><g fill="#ff3131" fill-opacity="1"><g transform="translate(221.072847, 293.885986)"><g><path d="M 7.953125 0 L 1.671875 0 L 1.671875 -14.984375 L 7.953125 -14.984375 Z M 7.953125 0 "/></g></g></g><g fill="#ff3131" fill-opacity="1"><g transform="translate(230.701047, 293.885986)"><g><path d="M 11.328125 0.328125 C 7.628906 0.328125 4.90625 -0.4375 3.15625 -1.96875 C 1.601562 -3.3125 0.828125 -5.148438 0.828125 -7.484375 C 0.828125 -9.816406 1.601562 -11.65625 3.15625 -13 C 4.90625 -14.519531 7.628906 -15.28125 11.328125 -15.28125 C 13.503906 -15.28125 15.300781 -15.03125 16.71875 -14.53125 C 18.144531 -14.03125 19.25 -13.347656 20.03125 -12.484375 C 20.820312 -11.628906 21.34375 -10.644531 21.59375 -9.53125 L 14.984375 -9.53125 C 14.328125 -10.6875 13.109375 -11.265625 11.328125 -11.265625 C 9.816406 -11.265625 8.703125 -10.828125 7.984375 -9.953125 C 7.410156 -9.253906 7.125 -8.429688 7.125 -7.484375 C 7.125 -6.523438 7.410156 -5.695312 7.984375 -5 C 8.703125 -4.125 9.816406 -3.6875 11.328125 -3.6875 C 13.109375 -3.6875 14.328125 -4.269531 14.984375 -5.4375 L 21.59375 -5.4375 C 21.34375 -4.320312 20.820312 -3.332031 20.03125 -2.46875 C 19.25 -1.601562 18.144531 -0.921875 16.71875 -0.421875 C 15.300781 0.078125 13.503906 0.328125 11.328125 0.328125 Z M 11.328125 0.328125 "/></g></g></g><g fill="#ff3131" fill-opacity="1"><g transform="translate(105.058591, 323.135984)"><g><path d="M 9.90625 0.328125 C 7.875 0.328125 6.238281 0.109375 5 -0.328125 C 3.757812 -0.765625 2.816406 -1.363281 2.171875 -2.125 C 1.523438 -2.882812 1.085938 -3.765625 0.859375 -4.765625 L 7.546875 -4.765625 C 8.035156 -4.054688 8.820312 -3.703125 9.90625 -3.703125 C 10.976562 -3.703125 11.765625 -4.054688 12.265625 -4.765625 C 12.304688 -4.835938 12.328125 -4.898438 12.328125 -4.953125 C 12.328125 -5.140625 12.078125 -5.28125 11.578125 -5.375 C 11.078125 -5.46875 10.332031 -5.539062 9.34375 -5.59375 C 8.101562 -5.644531 6.796875 -5.773438 5.421875 -5.984375 C 2.359375 -6.453125 0.828125 -7.679688 0.828125 -9.671875 C 0.828125 -9.835938 0.835938 -10.015625 0.859375 -10.203125 C 1.085938 -11.203125 1.523438 -12.082031 2.171875 -12.84375 C 2.816406 -13.601562 3.757812 -14.203125 5 -14.640625 C 6.238281 -15.078125 7.875 -15.296875 9.90625 -15.296875 C 11.925781 -15.296875 13.554688 -15.078125 14.796875 -14.640625 C 16.035156 -14.203125 16.976562 -13.601562 17.625 -12.84375 C 18.28125 -12.082031 18.71875 -11.203125 18.9375 -10.203125 L 12.265625 -10.203125 C 11.765625 -10.910156 10.976562 -11.265625 9.90625 -11.265625 C 8.820312 -11.265625 8.035156 -10.910156 7.546875 -10.203125 C 7.503906 -10.148438 7.484375 -10.097656 7.484375 -10.046875 C 7.484375 -9.878906 7.722656 -9.753906 8.203125 -9.671875 C 8.679688 -9.597656 9.382812 -9.53125 10.3125 -9.46875 C 11.238281 -9.414062 12.226562 -9.328125 13.28125 -9.203125 C 14.332031 -9.078125 15.316406 -8.859375 16.234375 -8.546875 C 17.148438 -8.234375 17.863281 -7.773438 18.375 -7.171875 C 18.78125 -6.703125 18.984375 -6.113281 18.984375 -5.40625 C 18.984375 -5.195312 18.96875 -4.984375 18.9375 -4.765625 C 18.71875 -3.765625 18.28125 -2.882812 17.625 -2.125 C 16.976562 -1.363281 16.035156 -0.765625 14.796875 -0.328125 C 13.554688 0.109375 11.925781 0.328125 9.90625 0.328125 Z M 9.90625 0.328125 "/></g></g></g><g fill="#ff3131" fill-opacity="1"><g transform="translate(124.878899, 323.135984)"><g><path d="M 10.53125 0.328125 C 6.882812 0.328125 4.3125 -0.429688 2.8125 -1.953125 C 1.5625 -3.222656 0.9375 -5.066406 0.9375 -7.484375 L 0.9375 -14.984375 L 7.234375 -14.984375 L 7.234375 -7.484375 C 7.234375 -6.429688 7.410156 -5.601562 7.765625 -5 C 8.265625 -4.132812 9.1875 -3.703125 10.53125 -3.703125 C 11.894531 -3.703125 12.828125 -4.132812 13.328125 -5 C 13.679688 -5.625 13.859375 -6.453125 13.859375 -7.484375 L 13.859375 -14.984375 L 20.140625 -14.984375 L 20.140625 -7.390625 C 20.140625 -5.035156 19.519531 -3.222656 18.28125 -1.953125 C 16.78125 -0.429688 14.195312 0.328125 10.53125 0.328125 Z M 10.53125 0.328125 "/></g></g></g><g fill="#ff3131" fill-opacity="1"><g transform="translate(145.962782, 323.135984)"><g><path d="M 22.125 0 L 16.1875 0 C 15.914062 -0.375 15.722656 -0.851562 15.609375 -1.4375 C 15.515625 -1.894531 15.367188 -2.335938 15.171875 -2.765625 C 14.984375 -3.203125 14.648438 -3.566406 14.171875 -3.859375 C 13.691406 -4.148438 12.984375 -4.304688 12.046875 -4.328125 L 7.953125 -4.328125 L 7.953125 0 L 1.671875 0 L 1.671875 -14.984375 L 11.890625 -14.984375 C 14.335938 -14.984375 16.3125 -14.800781 17.8125 -14.4375 C 19.3125 -14.070312 20.40625 -13.5 21.09375 -12.71875 C 21.78125 -11.9375 22.125 -10.914062 22.125 -9.65625 C 22.125 -8.601562 21.882812 -7.71875 21.40625 -7 C 20.9375 -6.28125 20.1875 -5.710938 19.15625 -5.296875 C 20.15625 -4.878906 20.800781 -4.382812 21.09375 -3.8125 C 21.382812 -3.238281 21.566406 -2.609375 21.640625 -1.921875 C 21.710938 -1.304688 21.875 -0.664062 22.125 0 Z M 7.953125 -8.015625 L 11.546875 -8.03125 C 12.554688 -8.03125 13.347656 -8.070312 13.921875 -8.15625 C 14.503906 -8.25 14.929688 -8.375 15.203125 -8.53125 C 15.472656 -8.695312 15.644531 -8.875 15.71875 -9.0625 C 15.800781 -9.25 15.84375 -9.445312 15.84375 -9.65625 C 15.84375 -9.851562 15.800781 -10.046875 15.71875 -10.234375 C 15.644531 -10.429688 15.472656 -10.609375 15.203125 -10.765625 C 14.929688 -10.929688 14.503906 -11.054688 13.921875 -11.140625 C 13.347656 -11.234375 12.554688 -11.28125 11.546875 -11.28125 L 7.953125 -11.28125 Z M 7.953125 -8.015625 "/></g></g></g><g fill="#ff3131" fill-opacity="1"><g transform="translate(168.926358, 323.135984)"><g><path d="M 14.390625 0 L 8.546875 0 L 0.15625 -14.984375 L 6.53125 -14.984375 L 11.484375 -4.265625 L 16.421875 -14.984375 L 22.796875 -14.984375 Z M 14.390625 0 "/></g></g></g><g fill="#ff3131" fill-opacity="1"><g transform="translate(191.869049, 323.135984)"><g><path d="M 7.953125 0 L 1.671875 0 L 1.671875 -14.984375 L 7.953125 -14.984375 Z M 7.953125 0 "/></g></g></g><g fill="#ff3131" fill-opacity="1"><g transform="translate(201.497249, 323.135984)"><g><path d="M 14.390625 0 L 8.546875 0 L 0.15625 -14.984375 L 6.53125 -14.984375 L 11.484375 -4.265625 L 16.421875 -14.984375 L 22.796875 -14.984375 Z M 14.390625 0 "/></g></g></g><g fill="#ff3131" fill-opacity="1"><g transform="translate(224.439939, 323.135984)"><g><path d="M 11.328125 0.328125 C 7.628906 0.328125 4.90625 -0.4375 3.15625 -1.96875 C 1.601562 -3.3125 0.828125 -5.148438 0.828125 -7.484375 C 0.828125 -9.816406 1.601562 -11.65625 3.15625 -13 C 4.90625 -14.53125 7.628906 -15.296875 11.328125 -15.296875 C 15.035156 -15.296875 17.765625 -14.53125 19.515625 -13 C 21.054688 -11.65625 21.828125 -9.816406 21.828125 -7.484375 C 21.828125 -5.148438 21.054688 -3.3125 19.515625 -1.96875 C 17.765625 -0.4375 15.035156 0.328125 11.328125 0.328125 Z M 11.328125 -3.703125 C 12.847656 -3.703125 13.960938 -4.132812 14.671875 -5 C 15.242188 -5.707031 15.53125 -6.535156 15.53125 -7.484375 C 15.53125 -8.441406 15.242188 -9.269531 14.671875 -9.96875 C 13.960938 -10.84375 12.847656 -11.28125 11.328125 -11.28125 C 9.816406 -11.28125 8.703125 -10.84375 7.984375 -9.96875 C 7.410156 -9.269531 7.125 -8.441406 7.125 -7.484375 C 7.125 -6.535156 7.410156 -5.707031 7.984375 -5 C 8.703125 -4.132812 9.816406 -3.703125 11.328125 -3.703125 Z M 11.328125 -3.703125 "/></g></g></g><g fill="#ff3131" fill-opacity="1"><g transform="translate(247.10067, 323.135984)"><g><path d="M 22.125 0 L 16.1875 0 C 15.914062 -0.375 15.722656 -0.851562 15.609375 -1.4375 C 15.515625 -1.894531 15.367188 -2.335938 15.171875 -2.765625 C 14.984375 -3.203125 14.648438 -3.566406 14.171875 -3.859375 C 13.691406 -4.148438 12.984375 -4.304688 12.046875 -4.328125 L 7.953125 -4.328125 L 7.953125 0 L 1.671875 0 L 1.671875 -14.984375 L 11.890625 -14.984375 C 14.335938 -14.984375 16.3125 -14.800781 17.8125 -14.4375 C 19.3125 -14.070312 20.40625 -13.5 21.09375 -12.71875 C 21.78125 -11.9375 22.125 -10.914062 22.125 -9.65625 C 22.125 -8.601562 21.882812 -7.71875 21.40625 -7 C 20.9375 -6.28125 20.1875 -5.710938 19.15625 -5.296875 C 20.15625 -4.878906 20.800781 -4.382812 21.09375 -3.8125 C 21.382812 -3.238281 21.566406 -2.609375 21.640625 -1.921875 C 21.710938 -1.304688 21.875 -0.664062 22.125 0 Z M 7.953125 -8.015625 L 11.546875 -8.03125 C 12.554688 -8.03125 13.347656 -8.070312 13.921875 -8.15625 C 14.503906 -8.25 14.929688 -8.375 15.203125 -8.53125 C 15.472656 -8.695312 15.644531 -8.875 15.71875 -9.0625 C 15.800781 -9.25 15.84375 -9.445312 15.84375 -9.65625 C 15.84375 -9.851562 15.800781 -10.046875 15.71875 -10.234375 C 15.644531 -10.429688 15.472656 -10.609375 15.203125 -10.765625 C 14.929688 -10.929688 14.503906 -11.054688 13.921875 -11.140625 C 13.347656 -11.234375 12.554688 -11.28125 11.546875 -11.28125 L 7.953125 -11.28125 Z M 7.953125 -8.015625 "/></g></g></g></svg>